<?xml version="1.0" encoding="UTF-8"?>
<svg version="1.1" xmlns="http://www.w3.org/2000/svg" width="432" height="432">
<path d="M0 0 C0 0.99 0 1.98 0 3 C-0.99 3 -1.98 3 -3 3 C-3.09796875 3.75539062 -3.1959375 4.51078125 -3.296875 5.2890625 C-4.8323187 16.59310491 -6.90745556 27.78798243 -9 39 C-9.99 39 -10.98 39 -12 39 C-14.64 34.38 -17.28 29.76 -20 25 C-20.33 25 -20.66 25 -21 25 C-22.32 30.61 -23.64 36.22 -25 42 C-29.28875211 39.85562395 -30.75937152 37.82046449 -33.1875 33.93359375 C-33.97649222 32.71414723 -34.76555691 31.4947476 -35.5546875 30.27539062 C-36.7824103 28.35282791 -38.00614375 26.42780906 -39.22753906 24.5012207 C-40.4128372 22.63891487 -41.61197512 20.78610668 -42.8125 18.93359375 C-43.52019531 17.82040771 -44.22789062 16.70722168 -44.95703125 15.56030273 C-46.74248065 12.88042672 -46.74248065 12.88042672 -49.26171875 12.12915039 C-49.83535156 12.08653076 -50.40898437 12.04391113 -51 12 C-51 11.34 -51 10.68 -51 10 C-42.57142857 7.71428571 -42.57142857 7.71428571 -38 8 C-38 8.66 -38 9.32 -38 10 C-38.66 10.66 -39.32 11.32 -40 12 C-38.39806267 14.5847394 -36.793547 17.16781595 -35.1875 19.75 C-34.73568359 20.47960937 -34.28386719 21.20921875 -33.81835938 21.9609375 C-31.66820353 25.41374251 -29.52949728 28.80661473 -27 32 C-24.42929644 22.50898278 -24.42929644 22.50898278 -26.6875 13.25 C-29.04203401 9.94092518 -30.14143876 8.96464031 -34 8 C-33.67 7.34 -33.34 6.68 -33 6 C-30.05859375 5.3671875 -30.05859375 5.3671875 -26.4375 4.875 C-25.23996094 4.70742188 -24.04242188 4.53984375 -22.80859375 4.3671875 C-21.41833984 4.18542969 -21.41833984 4.18542969 -20 4 C-20 4.99 -20 5.98 -20 7 C-20.99 7 -21.98 7 -23 7 C-21.73079864 9.3967104 -20.45969813 11.79238093 -19.1875 14.1875 C-18.83107422 14.86103516 -18.47464844 15.53457031 -18.10742188 16.22851562 C-16.54918871 19.15913763 -14.97857113 22.03482785 -13.23828125 24.86328125 C-12 27 -12 27 -12 29 C-11.34 29 -10.68 29 -10 29 C-9.90912109 27.65808594 -9.90912109 27.65808594 -9.81640625 26.2890625 C-9.32367008 19.17850052 -8.76742182 12.08640578 -8 5 C-9.32 4.67 -10.64 4.34 -12 4 C-12 3.34 -12 2.68 -12 2 C-10.56342755 1.66269158 -9.12569907 1.33030409 -7.6875 1 C-6.88699219 0.814375 -6.08648437 0.62875 -5.26171875 0.4375 C-3 0 -3 0 0 0 Z " fill="#484848" transform="translate(211,37)"/>
<path d="M0 0 C0.66 0 1.32 0 2 0 C2 1.32 2 2.64 2 4 C3.3317627 3.86368164 3.3317627 3.86368164 4.69042969 3.72460938 C7.99267927 3.38755694 11.2951014 3.05230454 14.59765625 2.71826172 C16.0254637 2.57347271 17.45319917 2.42797204 18.88085938 2.28173828 C20.93601145 2.07135711 22.99141098 1.86355846 25.046875 1.65625 C26.90070801 1.46772461 26.90070801 1.46772461 28.79199219 1.27539062 C32 1 32 1 36 1 C35.48751744 5.13782214 33.32569018 6.95085585 30.375 9.75 C26.60595428 13.40075897 23.05085322 17.10425877 19.66796875 21.11328125 C17.54591343 23.5136389 15.28032788 25.75064432 13 28 C15.56280208 27.85845864 18.12515485 27.71191438 20.6875 27.5625 C21.40873047 27.52318359 22.12996094 27.48386719 22.87304688 27.44335938 C26.66707282 27.21814322 30.28651492 26.87160695 34 26 C34.33 24.68 34.66 23.36 35 22 C35.99 22.33 36.98 22.66 38 23 C38.495 28.445 38.495 28.445 39 34 C38.01 34 37.02 34 36 34 C36 33.01 36 32.02 36 31 C21.645 32.485 21.645 32.485 7 34 C6.67 35.32 6.34 36.64 6 38 C5.01 38 4.02 38 3 38 C2.15022554 31.32852509 2.15022554 31.32852509 4.30957031 27.95263672 C6.17020327 25.85207189 8.10614668 23.88641178 10.125 21.9375 C11.46225914 20.59376189 12.79821084 19.24872131 14.1328125 17.90234375 C14.7815332 17.25765137 15.43025391 16.61295898 16.09863281 15.94873047 C18.88855215 13.08931391 21.44028735 10.06607325 24 7 C21.22882696 7.14080555 18.45817359 7.28743118 15.6875 7.4375 C14.90181641 7.47681641 14.11613281 7.51613281 13.30664062 7.55664062 C12.1706543 7.61948242 12.1706543 7.61948242 11.01171875 7.68359375 C10.31522217 7.72025146 9.61872559 7.75690918 8.90112305 7.79467773 C6.7783428 7.95581153 6.7783428 7.95581153 4 9 C3.26676204 11.01508358 3.26676204 11.01508358 3 13 C2.01 12.67 1.02 12.34 0 12 C-0.19401633 10.18818595 -0.38004375 8.37551468 -0.5625 6.5625 C-0.66691406 5.55316406 -0.77132812 4.54382813 -0.87890625 3.50390625 C-0.91886719 2.67761719 -0.95882812 1.85132813 -1 1 C-0.67 0.67 -0.34 0.34 0 0 Z " fill="#484848" transform="translate(37,211)"/>
<path d="M0 0 C0.66 0 1.32 0 2 0 C1.91105469 0.90105469 1.82210937 1.80210938 1.73046875 2.73046875 C1.69659478 6.05116233 1.69659478 6.05116233 3.80078125 8.23828125 C4.62964844 8.92277344 5.45851563 9.60726562 6.3125 10.3125 C7.66794922 11.4571875 7.66794922 11.4571875 9.05078125 12.625 C11.04606251 14.23179604 13.04352253 15.83588968 15.04296875 17.4375 C16.01878906 18.22125 16.99460938 19.005 18 19.8125 C19.36125 20.87404297 19.36125 20.87404297 20.75 21.95703125 C23 24 23 24 25 28 C7.675 28.495 7.675 28.495 -10 29 C0.14253184 39.59884772 0.14253184 39.59884772 7 42 C8.485 41.505 8.485 41.505 10 41 C9.49111733 45.41031645 6.96550928 47.89327599 4 51 C3.01 51 2.02 51 1 51 C1.23203125 50.25234375 1.4640625 49.5046875 1.703125 48.734375 C2.29351675 46.00155981 2.29351675 46.00155981 0.734375 44.078125 C0.07953125 43.47484375 -0.5753125 42.8715625 -1.25 42.25 C-1.9821875 41.57453125 -2.714375 40.8990625 -3.46875 40.203125 C-4.3040625 39.47609375 -5.139375 38.7490625 -6 38 C-7.40765625 36.75476563 -7.40765625 36.75476563 -8.84375 35.484375 C-14.17608036 30.43664228 -14.17608036 30.43664228 -21 29 C-21.99 29 -22.98 29 -24 29 C-22.84826645 26.53199953 -21.95216435 24.95216435 -20 23 C-17.42420615 22.75470419 -14.94770993 22.62658207 -12.3671875 22.5859375 C-11.61535187 22.56657135 -10.86351624 22.5472052 -10.08889771 22.5272522 C-7.68438101 22.46740853 -5.27981656 22.42105274 -2.875 22.375 C-1.24607272 22.33682454 0.38283428 22.29777307 2.01171875 22.2578125 C6.00764806 22.16170334 10.00367187 22.07769059 14 22 C12.06478939 20.20580474 10.1269646 18.41458671 8.1875 16.625 C7.64029297 16.11710937 7.09308594 15.60921875 6.52929688 15.0859375 C4.09977985 12.84783697 1.75431332 10.83620888 -1 9 C-4.14221967 9.31506627 -4.14221967 9.31506627 -7 10 C-5.32598022 6.04322598 -2.86850715 3.15535787 0 0 Z " fill="#484848" transform="translate(96,83)"/>
<path d="M0 0 C4.46625238 2.60949577 7.53003658 5.33774006 9.7734375 10.09375 C11.38630493 16.27113766 11.12373985 21.35998445 8.1953125 27.06640625 C5.67957282 30.6534087 2.42691444 32.76706205 -1.2265625 35.09375 C-2.02320313 35.65449219 -2.81984375 36.21523437 -3.640625 36.79296875 C-9.79605551 41.09375 -9.79605551 41.09375 -13.2265625 41.09375 C-12.8965625 40.10375 -12.5665625 39.11375 -12.2265625 38.09375 C-11.5665625 38.09375 -10.9065625 38.09375 -10.2265625 38.09375 C-16.69698842 27.47382894 -16.69698842 27.47382894 -23.5390625 17.09375 C-23.94769531 16.495625 -24.35632813 15.8975 -24.77734375 15.28125 C-26.88250259 13.5562681 -28.5954751 13.88220528 -31.2265625 14.09375 C-31.2265625 13.10375 -31.2265625 12.11375 -31.2265625 11.09375 C-29.5390625 9.6640625 -29.5390625 9.6640625 -27.2265625 8.21875 C-26.40929687 7.70183594 -25.59203125 7.18492188 -24.75 6.65234375 C-23.91726562 6.13800781 -23.08453125 5.62367187 -22.2265625 5.09375 C-21.10121094 4.36865234 -21.10121094 4.36865234 -19.953125 3.62890625 C-13.66076761 -0.40615565 -7.3904994 -3.00806292 0 0 Z M-20.2265625 7.09375 C-21.47801609 9.27236254 -21.47801609 9.27236254 -21.2265625 12.09375 C-19.82782108 14.98494696 -17.99244987 17.50571728 -16.1015625 20.09375 C-15.61429688 20.79242188 -15.12703125 21.49109375 -14.625 22.2109375 C-11.78168818 26.21879725 -8.81052194 29.73296752 -5.2265625 33.09375 C-0.1826909 30.98236189 2.71112555 28.64347061 5.7734375 24.09375 C7.13117706 19.78093021 7.02387265 17.02119329 5.2109375 12.96875 C2.65498483 8.49148597 -0.24726944 5.03341572 -5.33203125 3.4296875 C-10.80659656 2.46857621 -16.00218444 3.23577208 -20.2265625 7.09375 Z " fill="#484848" transform="translate(135.2265625,65.90625)"/>
<path d="M0 0 C1.66855812 0.99684079 3.33473244 1.99767184 5 3 C6.4540625 3.87205078 6.4540625 3.87205078 7.9375 4.76171875 C19.81082049 12.22797768 19.81082049 12.22797768 22 19 C22.9683011 24.60465808 22.75075161 29.41850959 19.9375 34.4375 C17.207168 38.14132085 14.45225336 40.66348867 10 42 C2.7925904 43.03424712 -2.99836129 42.15791495 -9 38 C-10.88365037 36.52164326 -12.68480075 34.99673136 -14.45703125 33.38671875 C-16.09109457 31.86735349 -16.09109457 31.86735349 -18.4375 30.25 C-18.953125 29.8375 -19.46875 29.425 -20 29 C-20 28.34 -20 27.68 -20 27 C-18.02 27.33 -16.04 27.66 -14 28 C-13.72744385 27.42258057 -13.4548877 26.84516113 -13.17407227 26.25024414 C-12.0035249 24.00675588 -10.69632969 22.04551129 -9.21484375 19.99609375 C-8.68439453 19.25552734 -8.15394531 18.51496094 -7.60742188 17.75195312 C-6.49094965 16.20456179 -5.37375783 14.65768941 -4.25585938 13.11132812 C-3.46211914 12.00241211 -3.46211914 12.00241211 -2.65234375 10.87109375 C-1.92519165 9.86453735 -1.92519165 9.86453735 -1.18334961 8.83764648 C0.17015014 6.90246878 0.17015014 6.90246878 1 4 C0.34 3.01 -0.32 2.02 -1 1 C-0.67 0.67 -0.34 0.34 0 0 Z M5 9 C2.86621115 11.88944968 0.74457764 14.78761371 -1.375 17.6875 C-2.27992188 18.91243164 -2.27992188 18.91243164 -3.203125 20.16210938 C-3.78320312 20.95810547 -4.36328125 21.75410156 -4.9609375 22.57421875 C-5.49509277 23.30213623 -6.02924805 24.03005371 -6.57958984 24.7800293 C-8.07032009 27.10990384 -9.05498116 29.40618246 -10 32 C-5.80889266 36.40672701 -2.33898252 38.93921512 3.859375 39.234375 C8.47983442 38.72848528 11.104642 35.895358 14.25 32.75 C17.11590649 28.24643267 18.39240356 24.18001979 17.4375 18.875 C15.60810669 15.21621339 13.94642448 12.87946028 11 10 C7.90027551 9.29722504 7.90027551 9.29722504 5 9 Z " fill="#484848" transform="translate(306,65)"/>
<path d="M0 0 C7.17078788 0.66396184 14.58936834 1.64504005 20.625 5.8125 C22.52398006 8.83360464 22.56274606 10.48283712 22 14 C20 17.375 20 17.375 18 20 C18.495 20.495 18.99 20.99 19.5 21.5 C21.5892859 24.98214316 21.77873067 28.09885888 21 32 C19 35.4375 19 35.4375 16 38 C9.74542311 39.38990598 5.46597041 38.67820988 -0.5 36.5625 C-1.22703125 36.31951172 -1.9540625 36.07652344 -2.703125 35.82617188 C-4.47372948 35.23208748 -6.23763882 34.61810968 -8 34 C-8 33.01 -8 32.02 -8 31 C-6.68 31.33 -5.36 31.66 -4 32 C-3.74476563 31.05253906 -3.74476563 31.05253906 -3.484375 30.0859375 C-1.66903815 23.38464084 0.24565487 16.71962132 2.23046875 10.06640625 C3.1622718 6.88029913 3.1622718 6.88029913 3 3 C2.01 2.67 1.02 2.34 0 2 C0 1.34 0 0.68 0 0 Z M9 5 C8.01 8.3 7.02 11.6 6 15 C9.45029042 17.30019361 10.94554358 17.43132515 15 17 C17.16551116 13.75173326 17.55156953 12.76905843 17 9 C15.35380651 6.60371845 15.35380651 6.60371845 13 5 C11.68 5 10.36 5 9 5 Z M5 19 C2.23801219 25.82303799 2.23801219 25.82303799 2 33 C5.7509668 35.50064454 8.58823451 35.88051868 13 35 C15.27808606 33.03723095 15.27808606 33.03723095 16 30 C15.88200002 26.57800046 15.64983667 24.08306112 13.875 21.125 C11.05596316 19.43357789 8.23022817 19.30473851 5 19 Z " fill="#484848" transform="translate(251,44)"/>
<path d="M0 0 C0.99 0.33 1.98 0.66 3 1 C2.773125 1.58136719 2.54625 2.16273438 2.3125 2.76171875 C1.74842504 5.04992368 1.74842504 5.04992368 3.1875 6.89453125 C4.0846875 7.84392578 4.0846875 7.84392578 5 8.8125 C5.96873047 9.85083984 5.96873047 9.85083984 6.95703125 10.91015625 C7.96830078 11.94462891 7.96830078 11.94462891 9 13 C9.62261719 13.63808594 10.24523437 14.27617187 10.88671875 14.93359375 C12.0613109 16.11837759 13.24583904 17.29341684 14.44140625 18.45703125 C15.72613146 19.72887701 16.9370365 21.07483599 18.125 22.4375 C19.94844013 24.25779935 19.94844013 24.25779935 22.75 24.25 C23.86375 24.12625 23.86375 24.12625 25 24 C23.55097031 27.31419098 21.7319786 29.56592592 19.1875 32.125 C18.52105469 32.80820312 17.85460937 33.49140625 17.16796875 34.1953125 C13.65510036 37.11953808 10.99673833 38.01748664 6.4375 37.9375 C3 37 3 37 0.5625 34.9375 C-1.53874859 30.98715265 -1.30048996 28.43222695 -1 24 C-2.89492006 23.66151348 -4.79098466 23.32943089 -6.6875 23 C-7.74324219 22.814375 -8.79898437 22.62875 -9.88671875 22.4375 C-14.00552063 21.85869723 -17.03783007 21.67927669 -21 23 C-20.43602898 19.72896806 -19.62083956 18.06562754 -17 16 C-15.0546875 15.85546875 -15.0546875 15.85546875 -12.875 16.1875 C-12.08609375 16.29964844 -11.2971875 16.41179687 -10.484375 16.52734375 C-7.25567182 17.14160961 -4.09805232 17.9640133 -0.9453125 18.890625 C1.12922928 19.22823934 1.12922928 19.22823934 2.7578125 17.546875 C3.16773438 17.03640625 3.57765625 16.5259375 4 16 C1.81321095 13.47290372 -0.37232162 11.07391145 -3 9 C-5.86920862 8.86789525 -5.86920862 8.86789525 -8 10 C-7.4346089 6.49304707 -6.31277274 4.97267387 -3.625 2.6875 C-3.01914062 2.15511719 -2.41328125 1.62273437 -1.7890625 1.07421875 C-1.19867188 0.71972656 -0.60828125 0.36523438 0 0 Z M7 19 C4.333492 21.16588845 4.333492 21.16588845 2 24 C1.91939925 27.30463084 2.75042748 28.65799321 4.6875 31.3125 C6.93883423 33.22036128 6.93883423 33.22036128 10 33.5 C13.5944274 32.90092877 14.73943528 31.7822335 17 29 C16.52949219 28.52949219 16.05898438 28.05898438 15.57421875 27.57421875 C12.71614583 24.71614583 9.85807292 21.85807292 7 19 Z " fill="#484848" transform="translate(319,311)"/>
<path d="M0 0 C3.16115776 1.36983503 3.9927092 1.9890638 6 5 C5.75745432 9.97218646 3.76274516 14.15971588 1.7421875 18.6328125 C0.92339837 21.24431889 1.07718783 22.46518684 2 25 C5.44738372 23.46782946 8.25309882 21.59429556 11 19 C11 17.68 11 16.36 11 15 C15.21779303 16.50635465 16.7747674 19.24012422 19 23 C19.495 24.485 19.495 24.485 20 26 C19.11086914 25.77602539 18.22173828 25.55205078 17.30566406 25.32128906 C13.34900093 24.93672712 12.27938759 25.57228106 9.109375 27.859375 C8.23539063 28.48070312 7.36140625 29.10203125 6.4609375 29.7421875 C5.56632812 30.40476562 4.67171875 31.06734375 3.75 31.75 C2.83992188 32.39710938 1.92984375 33.04421875 0.9921875 33.7109375 C-4.06435238 37.29220749 -4.06435238 37.29220749 -8 42 C-8 43.32 -8 44.64 -8 46 C-13.52124962 40.90346189 -18.52658968 35.26069284 -19.375 27.625 C-19 24 -19 24 -17.0625 21.0625 C-12.95351764 18.29522617 -9.80815498 18.52861226 -5 19 C-0.62910547 9.87014413 -0.62910547 9.87014413 0 0 Z M-13 25 C-15.56687367 28.8503105 -14.83288724 30.58569763 -14 35 C-13.01 35.33 -12.02 35.66 -11 36 C-8.41730376 34.5696137 -8.41730376 34.5696137 -5.8125 32.5625 C-4.91144531 31.90378906 -4.01039062 31.24507813 -3.08203125 30.56640625 C-2.39496094 30.04949219 -1.70789063 29.53257812 -1 29 C-1.65841595 25.7125998 -1.65841595 25.7125998 -3.9375 23.25 C-7.72893019 20.95216352 -9.56529161 22.68157184 -13 25 Z " fill="#484848" transform="translate(86,282)"/>
<path d="M0 0 C4.46876455 3.07848225 8.07974831 6.73924494 9.8125 11.9375 C10.31164836 17.1499181 10.48479146 21.54120235 8.1875 26.3125 C4.29312655 30.6168075 0.63001012 34.59582956 -5.45703125 35.140625 C-10.80984344 35.23929435 -14.66801528 35.12168241 -19.1875 31.9375 C-24.01199546 27.13570805 -26.31731845 23.57651389 -26.5 16.625 C-26.44657223 11.56271913 -25.66631166 8.79239941 -22.1875 4.9375 C-15.63078557 -1.11485178 -8.51108735 -2.83702912 0 0 Z M-17.27734375 7.71484375 C-20.04225849 10.66069361 -21.91446154 13.19422863 -23.3125 17 C-23.1134244 21.6782766 -21.63955998 25.32410003 -18.5 28.8125 C-14.37558824 30.81897058 -10.51759703 31.59638512 -6.1015625 30.34765625 C-1.07135197 28.10237071 3.242464 24.88997813 5.8125 19.9375 C6.7906143 15.12216809 6.51209235 11.3366847 4.3125 6.9375 C-2.64033912 1.3752287 -10.63611681 2.06669747 -17.27734375 7.71484375 Z " fill="#484848" transform="translate(73.1875,253.0625)"/>
<path d="M0 0 C4.50224059 3.85906336 7.38092105 7.36889951 8.625 13.25 C8.72867969 19.55142114 7.38656042 24.20158996 3.625 29.25 C-1.56790638 33.46923644 -5.95564757 33.82208532 -12.5703125 33.56640625 C-17.85947991 32.96971745 -20.45568499 31.19020854 -24.125 27.4375 C-27.87951381 22.11860544 -28.89549849 17.93541298 -27.98046875 11.5625 C-26.6408373 6.44597214 -24.01287695 2.48839477 -19.8125 -0.6875 C-13.17100943 -3.58250871 -6.45098919 -3.34495736 0 0 Z M-23.25 9 C-24.92170032 12.34340064 -25.59624358 15.54595432 -25.375 19.25 C-23.54768937 23.28531097 -22.00189013 24.8812411 -18.1875 27.125 C-12.42880459 28.82428717 -7.74952323 29.10124418 -2.0625 27.0625 C2.16414887 24.21196937 4.16883671 21.7895511 5.625 16.875 C5.625 12.30732789 4.5644393 9.70763832 1.625 6.25 C-6.56628728 0.20404986 -16.24964211 2.46633264 -23.25 9 Z " fill="#484848" transform="translate(380.375,229.75)"/>
<path d="M0 0 C3.51780586 1.44399018 5.16002211 3.19270658 7.375 6.25 C9.57973779 9.22305551 11.76257508 11.82335315 14.5 14.3125 C15.325 15.199375 16.15 16.08625 17 17 C16.78515625 19.08984375 16.78515625 19.08984375 16 21 C13.9375 22.25 13.9375 22.25 12 23 C11.7525 21.948125 11.505 20.89625 11.25 19.8125 C10.23299214 16.1866459 8.54626571 13.80089228 6 11 C2.74456771 11.34879632 1.98126893 12.02133261 -0.25 14.5625 C-0.8275 15.366875 -1.405 16.17125 -2 17 C0.51070754 20.66887552 0.51070754 20.66887552 4.25 22.8125 C5.11625 22.9053125 5.11625 22.9053125 6 23 C6 23.99 6 24.98 6 26 C3.11165997 28.10770759 1.61537605 29 -2 29 C-1.7525 28.443125 -1.505 27.88625 -1.25 27.3125 C-0.71646324 24.75949064 -0.71646324 24.75949064 -2.9375 22.25 C-3.618125 21.5075 -4.29875 20.765 -5 20 C-8.94139078 21.66751148 -11.7892812 24.22710649 -15 27 C-14.52470993 31.27761063 -12.2331694 33.34161627 -9 36 C-5.81849108 36.87989974 -5.81849108 36.87989974 -3 37 C-3.33 37.99 -3.66 38.98 -4 40 C-7.10546875 40.92578125 -7.10546875 40.92578125 -11 41 C-13.60310499 39.13346491 -15.39060594 36.72793468 -17.3125 34.1875 C-18.09850586 33.20426758 -18.09850586 33.20426758 -18.90039062 32.20117188 C-19.87213466 30.98555866 -20.83399534 29.76193048 -21.7824707 28.52807617 C-23.06349862 26.86157455 -23.06349862 26.86157455 -25 25 C-25 24.01 -25 23.02 -25 22 C-24.28328125 22.24621094 -23.5665625 22.49242188 -22.828125 22.74609375 C-19.90001955 23.29354418 -19.90001955 23.29354418 -17.421875 21.41015625 C-16.54015625 20.63542969 -15.6584375 19.86070313 -14.75 19.0625 C-13.79996094 18.23234375 -12.84992188 17.4021875 -11.87109375 16.546875 C-10.92363281 15.70640625 -9.97617187 14.8659375 -9 14 C-7.65615234 12.92492187 -7.65615234 12.92492187 -6.28515625 11.828125 C-5.46917969 11.16296875 -4.65320313 10.4978125 -3.8125 9.8125 C-3.07644531 9.22082031 -2.34039062 8.62914063 -1.58203125 8.01953125 C0.55602721 5.29020724 0.29108752 3.37375208 0 0 Z " fill="#484848" transform="translate(340,93)"/>
<path d="M0 0 C0.99 0 1.98 0 3 0 C2.67 1.98 2.34 3.96 2 6 C2.57814453 6.27706787 3.15628906 6.55413574 3.75195312 6.83959961 C5.93303208 7.96543239 7.92772156 9.20530899 9.96875 10.56640625 C10.70480469 11.05173828 11.44085938 11.53707031 12.19921875 12.03710938 C13.73487434 13.05523078 15.26872905 14.07607366 16.80078125 15.09960938 C17.53683594 15.58365234 18.27289063 16.06769531 19.03125 16.56640625 C19.69705078 17.00927979 20.36285156 17.45215332 21.04882812 17.90844727 C23.08050233 19.04503578 24.6855739 19.72514685 27 20 C27.66 19.34 28.32 18.68 29 18 C29.495 19.485 29.495 19.485 30 21 C28.77734375 23.1640625 28.77734375 23.1640625 26.9375 25.625 C26.29554688 26.5015625 25.65359375 27.378125 24.9921875 28.28125 C24.33476562 29.1784375 23.67734375 30.075625 23 31 C21.84400078 32.70147072 20.69725773 34.40928974 19.5625 36.125 C19.06878906 36.87007813 18.57507813 37.61515625 18.06640625 38.3828125 C17.71449219 38.91648437 17.36257813 39.45015625 17 40 C14.5625 39.1875 14.5625 39.1875 12 38 C11.67 37.01 11.34 36.02 11 35 C11.94875 34.9175 12.8975 34.835 13.875 34.75 C17.05763667 34.36374675 17.05763667 34.36374675 18.1875 32.1875 C18.455625 31.465625 18.72375 30.74375 19 30 C19.97581759 28.64886795 20.97029741 27.31053056 22 26 C20.90554162 25.13342884 19.79902219 24.28207276 18.6875 23.4375 C18.07261719 22.96183594 17.45773437 22.48617188 16.82421875 21.99609375 C16.22222656 21.66738281 15.62023437 21.33867187 15 21 C11.72226496 21.75150023 11.72226496 21.75150023 10 25 C9.60986284 26.9896995 9.26797351 28.99019869 9 31 C6.13302508 29.71480435 4.02392288 28.42870746 2 26 C2 25.34 2 24.68 2 24 C2.763125 23.938125 3.52625 23.87625 4.3125 23.8125 C7.68948961 23.12001844 7.68948961 23.12001844 10 18 C6.7 15.69 3.4 13.38 0 11 C-4.58531454 13.29265727 -5.21069043 14.34779511 -7 19 C-7.25196823 22.25100364 -7.25196823 22.25100364 -7 25 C-8.9375 24.3125 -8.9375 24.3125 -11 23 C-11.96484375 20.9296875 -11.96484375 20.9296875 -12 18 C-10.51852568 15.04666382 -8.59022524 12.46076085 -6.625 9.8125 C-5.59572608 8.38196212 -4.56705157 6.95099271 -3.5390625 5.51953125 C-3.07709473 4.89151611 -2.61512695 4.26350098 -2.13916016 3.61645508 C-0.93271391 1.9901607 -0.93271391 1.9901607 0 0 Z " fill="#484848" transform="translate(336,287)"/>
<path d="M0 0 C0.66 0 1.32 0 2 0 C3.01142195 3.22570078 4.00708653 6.45605865 5 9.6875 C5.28617187 10.59951172 5.57234375 11.51152344 5.8671875 12.45117188 C6.13789063 13.33740234 6.40859375 14.22363281 6.6875 15.13671875 C6.93886719 15.94842529 7.19023437 16.76013184 7.44921875 17.59643555 C8.03200496 20.13966705 8.09712888 22.39977907 8 25 C5.03 25.495 5.03 25.495 2 26 C2.20625 25.195625 2.4125 24.39125 2.625 23.5625 C3.11256228 18.93065838 2.15948821 15.50154246 1 11 C-1.97 11.66 -4.94 12.32 -8 13 C-7.67 15.97 -7.34 18.94 -7 22 C-6.01 22.33 -5.02 22.66 -4 23 C-4 23.66 -4 24.32 -4 25 C-6.97 25.33 -9.94 25.66 -13 26 C-12.67 25.01 -12.34 24.02 -12 23 C-11.34 23 -10.68 23 -10 23 C-10.66 20.03 -11.32 17.06 -12 14 C-18.435 15.98 -18.435 15.98 -25 18 C-24.76837852 24.00522013 -24.76837852 24.00522013 -21.5 28.875 C-20.675 29.57625 -19.85 30.2775 -19 31 C-18.67 31.66 -18.34 32.32 -18 33 C-20.64 33 -23.28 33 -26 33 C-32 15.76595745 -32 15.76595745 -32 9 C-30 9 -30 9 -28.375 10.5 C-27.92125 10.995 -27.4675 11.49 -27 12 C-26.25314941 11.78794922 -25.50629883 11.57589844 -24.73681641 11.35742188 C-21.36696737 10.40225519 -17.99600495 9.45107874 -14.625 8.5 C-13.449375 8.16613281 -12.27375 7.83226562 -11.0625 7.48828125 C-9.94101562 7.17246094 -8.81953125 6.85664063 -7.6640625 6.53125 C-6.10872803 6.09135742 -6.10872803 6.09135742 -4.52197266 5.64257812 C-2 5 -2 5 0 5 C0 3.35 0 1.7 0 0 Z " fill="#484848" transform="translate(380,159)"/>
<path d="M0 0 C2.475 0.99 2.475 0.99 5 2 C5 2.99 5 3.98 5 5 C3.88625 5.5878125 3.88625 5.5878125 2.75 6.1875 C-1.05904194 8.69800491 -2.25249069 11.88993619 -4 16 C-2.63875 16.433125 -2.63875 16.433125 -1.25 16.875 C1.32202908 17.76531776 3.61346766 18.71494413 6 20 C7.61064629 16.34920174 8.44894091 12.9492568 9 9 C13.75 10.875 13.75 10.875 16 12 C16 12.99 16 13.98 16 15 C14.68 14.67 13.36 14.34 12 14 C10.92474806 16.65228812 9.90543849 19.28368454 9 22 C10.60032137 22.84069415 12.20541171 23.67231505 13.8125 24.5 C14.70582031 24.9640625 15.59914063 25.428125 16.51953125 25.90625 C19.00568026 27.20173141 19.00568026 27.20173141 22 27 C25.16727335 21.8531808 25.35050464 17.841744 25 12 C27.46800047 13.15173355 29.04783565 14.04783565 31 16 C30.73430374 20.63307854 28.33596552 24.24533698 26 28.125 C23.1363134 32.88410997 23.1363134 32.88410997 21 38 C20.01 38 19.02 38 18 38 C17.92362305 37.23397461 17.84724609 36.46794922 17.76855469 35.67871094 C17.24453713 32.90738293 17.24453713 32.90738293 15.12988281 31.43847656 C14.32905273 31.01018555 13.52822266 30.58189453 12.703125 30.140625 C11.8265625 29.66496094 10.95 29.18929687 10.046875 28.69921875 C9.12390625 28.22097656 8.2009375 27.74273437 7.25 27.25 C6.3425 26.75628906 5.435 26.26257813 4.5 25.75390625 C0.30797188 23.51693218 -3.27379316 21.76215597 -8 21 C-8.33 21.66 -8.66 22.32 -9 23 C-9.66 23 -10.32 23 -11 23 C-10.42590968 19.42635641 -9.50054964 16.71615696 -7.71484375 13.57421875 C-7.26689453 12.77822266 -6.81894531 11.98222656 -6.35742188 11.16210938 C-5.88884766 10.34548828 -5.42027344 9.52886719 -4.9375 8.6875 C-4.46505859 7.85154297 -3.99261719 7.01558594 -3.50585938 6.15429688 C-2.34332244 4.09930735 -1.17457909 2.04812263 0 0 Z " fill="#484848" transform="translate(65,121)"/>
<path d="M0 0 C8.25 0.66 16.5 1.32 25 2 C24.67 4.31 24.34 6.62 24 9 C23.34 9 22.68 9 22 9 C21.34 8.01 20.68 7.02 20 6 C17.35308332 5.19907746 17.35308332 5.19907746 14.375 4.8125 C11.714375 4.4103125 11.714375 4.4103125 9 4 C8.67 7.63 8.34 11.26 8 15 C10.10375 15.0309375 10.10375 15.0309375 12.25 15.0625 C13.03890625 15.07410156 13.8278125 15.08570313 14.640625 15.09765625 C16.90691002 15.00385306 18.8288895 14.63241063 21 14 C20.67 16.64 20.34 19.28 20 22 C19.01 22 18.02 22 17 22 C17 21.01 17 20.02 17 19 C14.03 18.67 11.06 18.34 8 18 C7.67 22.95 7.34 27.9 7 33 C8.7325 33.061875 10.465 33.12375 12.25 33.1875 C13.22453125 33.22230469 14.1990625 33.25710937 15.203125 33.29296875 C18.40385685 32.95769656 19.58504863 32.03561166 22 30 C22.66 30 23.32 30 24 30 C23.75 32.875 23.75 32.875 23 36 C19.93430528 38.13839539 17.65610608 38.1573775 14.015625 37.7578125 C13.08105469 37.66113281 12.14648438 37.56445312 11.18359375 37.46484375 C10.21550781 37.35269531 9.24742187 37.24054688 8.25 37.125 C7.26644531 37.02058594 6.28289062 36.91617188 5.26953125 36.80859375 C2.84499738 36.54966295 0.42220194 36.27977765 -2 36 C-2 35.01 -2 34.02 -2 33 C-1.01 33 -0.02 33 1 33 C1.33865898 29.47965794 1.66996095 25.95865982 2 22.4375 C2.09539062 21.44685547 2.19078125 20.45621094 2.2890625 19.43554688 C2.77008121 14.26459572 3.11653634 9.19315048 3 4 C2.01 3.67 1.02 3.34 0 3 C0 2.01 0 1.02 0 0 Z " fill="#484848" transform="translate(216,39)"/>
<path d="M0 0 C0.66 0 1.32 0 2 0 C2 1.65 2 3.3 2 5 C2.81339844 5.25652344 3.62679688 5.51304687 4.46484375 5.77734375 C9.34462951 7.46504866 14.06285763 9.49618862 18.81054688 11.52148438 C22.52484336 13.07930596 25.98276032 14.41929011 30 15 C30.33 14.01 30.66 13.02 31 12 C31.66 12.33 32.32 12.66 33 13 C31.07581246 19.25360951 29.11347363 25.59298836 24.75 30.5625 C21.06446528 32.48902951 18.0758581 32.83987379 14 32 C11.1899654 30.20636089 9.49059532 28.98119065 8 26 C7.83203125 23.94140625 7.83203125 23.94140625 7.8125 21.5625 C7.79832031 20.78003906 7.78414063 19.99757813 7.76953125 19.19140625 C8 17 8 17 10 14 C6.04 12.68 2.08 11.36 -2 10 C-2 10.99 -2 11.98 -2 13 C-2.99 12.67 -3.98 12.34 -5 12 C-3.35 8.04 -1.7 4.08 0 0 Z M13 15 C10.60207552 17.68651882 10.60207552 17.68651882 10.125 21.0625 C11.45728778 24.0125658 13.12443325 25.56221663 16 27 C19.41571853 27.50031206 19.41571853 27.50031206 23 27 C25.47208796 24.64167228 25.47208796 24.64167228 27 22 C24.50003341 19.0222241 21.95288929 18.05451517 18.3125 16.8125 C17.31863281 16.46832031 16.32476562 16.12414062 15.30078125 15.76953125 C14.16189453 15.38861328 14.16189453 15.38861328 13 15 Z " fill="#484848" transform="translate(348,262)"/>
<path d="M0 0 C3 1 3 1 4.16796875 2.7421875 C4.50441406 3.44601563 4.84085937 4.14984375 5.1875 4.875 C5.53167969 5.57367188 5.87585938 6.27234375 6.23046875 6.9921875 C7 9 7 9 7 12 C4.525 11.505 4.525 11.505 2 11 C0.24914666 13.06178074 -1.50070381 15.12439877 -3.25 17.1875 C-3.74113281 17.76564453 -4.23226563 18.34378906 -4.73828125 18.93945312 C-7.54579056 22.25231411 -10.30568908 25.5936212 -13 29 C-9.56073907 28.55429393 -6.12402798 28.09127385 -2.6875 27.625 C-1.71103516 27.49867188 -0.73457031 27.37234375 0.27148438 27.2421875 C1.20927734 27.11328125 2.14707031 26.984375 3.11328125 26.8515625 C3.97735596 26.73635254 4.84143066 26.62114258 5.73168945 26.50244141 C8.26452196 26.08483053 8.26452196 26.08483053 11 24 C11 23.01 11 22.02 11 21 C14.33571429 22.11190476 14.58417079 22.46320673 16.1875 25.375 C16.53167969 25.98085937 16.87585938 26.58671875 17.23046875 27.2109375 C18 29 18 29 18 32 C17.01 31.67 16.02 31.34 15 31 C6.87252871 30.45325736 -1.14111086 31.45354517 -9.1875 32.5 C-10.33025391 32.64308594 -11.47300781 32.78617188 -12.65039062 32.93359375 C-15.43441319 33.28305265 -18.21750525 33.63861208 -21 34 C-21 29.3947854 -20.42125742 28.82008432 -17.5625 25.4375 C-16.83804687 24.56738281 -16.11359375 23.69726562 -15.3671875 22.80078125 C-14.58601563 21.87652344 -13.80484375 20.95226562 -13 20 C-11.39289071 18.04408081 -9.78867352 16.08578135 -8.1875 14.125 C-7.45917969 13.24070313 -6.73085938 12.35640625 -5.98046875 11.4453125 C-1.76328392 6.30378433 -1.76328392 6.30378433 0 0 Z " fill="#484848" transform="translate(362,121)"/>
<path d="M0 0 C1.29315061 0.95632999 2.58446853 1.91513851 3.875 2.875 C4.59429687 3.40867187 5.31359375 3.94234375 6.0546875 4.4921875 C8 6 8 6 10 8 C10 8.99 10 9.98 10 11 C9.319375 10.690625 8.63875 10.38125 7.9375 10.0625 C5.05402453 9.70240128 5.05402453 9.70240128 3.35546875 11.2109375 C1.4853201 13.0768646 -0.26583882 15.00700879 -2 17 C-2.61488281 17.68449219 -3.22976562 18.36898438 -3.86328125 19.07421875 C-5.06180409 20.42159454 -6.2472307 21.78075673 -7.41796875 23.15234375 C-8.74080402 24.6972847 -10.11470495 26.19830782 -11.5 27.6875 C-13.29677031 29.93722046 -13.29677031 29.93722046 -12.75 32.8125 C-12.5025 33.534375 -12.255 34.25625 -12 35 C-15.4579239 34.61578623 -17.04152986 33.15866365 -19.36328125 30.67578125 C-23.03972493 26.91159429 -27.07346074 23.49957576 -31 20 C-30.505 18.515 -30.505 18.515 -30 17 C-27.4375 15.8125 -27.4375 15.8125 -25 15 C-24.7525 15.9075 -24.505 16.815 -24.25 17.75 C-22.96018658 21.10351489 -21.68028958 22.67708236 -19 25 C-15.2047869 23.50902342 -13.38957269 21.24299151 -11 18 C-13.83430453 14.7457985 -15.68607774 13.4793247 -20 13 C-18.86525052 9.59575156 -18.03188696 8.78346291 -15 7 C-14.01 7.33 -13.02 7.66 -12 8 C-12.33 8.99 -12.66 9.98 -13 11 C-11.35 12.32 -9.7 13.64 -8 15 C-4.73991357 11.83047153 -1.77762123 8.60062011 1 5 C0.34 3.68 -0.32 2.36 -1 1 C-0.67 0.67 -0.34 0.34 0 0 Z " fill="#484848" transform="translate(115,317)"/>
<path d="M0 0 C2.31 0.66 4.62 1.32 7 2 C7 2.66 7 3.32 7 4 C6.360625 4.20625 5.72125 4.4125 5.0625 4.625 C2.64576118 5.88634445 2.64576118 5.88634445 2.37109375 9.0859375 C2.24863281 10.04757813 2.12617187 11.00921875 2 12 C5.54073904 12.5067183 9.08272111 13.00417029 12.625 13.5 C14.12353516 13.71462891 14.12353516 13.71462891 15.65234375 13.93359375 C20.46944557 14.60352182 25.12196787 15.19978289 30 15 C30.33 14.01 30.66 13.02 31 12 C31.99 12 32.98 12 34 12 C33.34 16.62 32.68 21.24 32 26 C31.34 26 30.68 26 30 26 C29.505 24.02 29.505 24.02 29 22 C25.81256234 21.52041808 22.62503862 21.04141041 19.4375 20.5625 C18.54224609 20.42779297 17.64699219 20.29308594 16.72460938 20.15429688 C11.81890733 19.41754309 6.91193616 18.6940047 2 18 C0.64285937 21.66427971 1.47713166 23.50636088 3 27 C3 27.99 3 28.98 3 30 C0.69 29.34 -1.62 28.68 -4 28 C-3.52788971 23.52005975 -3.04613762 19.04120929 -2.5625 14.5625 C-2.36043945 12.6434082 -2.36043945 12.6434082 -2.15429688 10.68554688 C-2.02216797 9.47060547 -1.89003906 8.25566406 -1.75390625 7.00390625 C-1.63345947 5.87799072 -1.5130127 4.7520752 -1.38891602 3.59204102 C-1 1 -1 1 0 0 Z " fill="#484848" transform="translate(42,176)"/>
<path d="M0 0 C0.66 0.33 1.32 0.66 2 1 C2.4140625 3.94140625 2.4140625 3.94140625 2.625 7.5625 C2.69976562 8.76003906 2.77453125 9.95757812 2.8515625 11.19140625 C2.90054688 12.11824219 2.94953125 13.04507813 3 14 C2.01 14 1.02 14 0 14 C-0.495 12.515 -0.495 12.515 -1 11 C-4.35442664 11.1401998 -7.70846775 11.28818428 -11.0625 11.4375 C-12.00544922 11.47681641 -12.94839844 11.51613281 -13.91992188 11.55664062 C-19.01115478 11.78725396 -23.97064756 12.1699127 -29 13 C-28.74379316 14.6065676 -28.46944129 16.2102483 -28.1875 17.8125 C-28.03667969 18.70582031 -27.88585937 19.59914062 -27.73046875 20.51953125 C-26.936159 23.21678629 -26.03259853 24.14560189 -24 26 C-24 26.66 -24 27.32 -24 28 C-26.31 27.67 -28.62 27.34 -31 27 C-32.68561267 21.78556404 -33.38512698 17.02460865 -33.625 11.5625 C-33.66367187 10.83095703 -33.70234375 10.09941406 -33.7421875 9.34570312 C-33.83533984 7.56416468 -33.91870286 5.78211878 -34 4 C-33.01 3.67 -32.02 3.34 -31 3 C-30.67 3.99 -30.34 4.98 -30 6 C-26.10390391 5.86070975 -22.20820038 5.71242069 -18.3125 5.5625 C-16.65831055 5.50352539 -16.65831055 5.50352539 -14.97070312 5.44335938 C-13.3706543 5.38051758 -13.3706543 5.38051758 -11.73828125 5.31640625 C-10.75899658 5.27974854 -9.77971191 5.24309082 -8.77075195 5.20532227 C-6.10534823 5.00780667 -3.60530212 4.58426967 -1 4 C-0.67 2.68 -0.34 1.36 0 0 Z " fill="#484848" transform="translate(388,194)"/>
<path d="M0 0 C0.66 0 1.32 0 2 0 C1.48594831 4.96916636 0.76615118 9.29026351 -1 14 C-1.99 13.67 -2.98 13.34 -4 13 C-3.71517632 11.58194169 -3.42181856 10.16559621 -3.125 8.75 C-2.96257812 7.96109375 -2.80015625 7.1721875 -2.6328125 6.359375 C-2.00849925 4.03168856 -1.15161458 2.10968048 0 0 Z " fill="#484848" transform="translate(67,160)"/>
</svg>
